<?xml version="1.0" encoding="UTF-8"?>
<svg width="176px" height="336px" viewBox="0 0 176 336" version="1.1" xmlns="http://www.w3.org/2000/svg" xmlns:xlink="http://www.w3.org/1999/xlink">
    <!-- Generator: sketchtool 53.2 (72643) - https://sketchapp.com -->
    <title>FAD3C091-8220-49D2-830F-EA800C68BBDC</title>
    <desc>Created with sketchtool.</desc>
    <g id="Page-1" stroke="none" stroke-width="1" fill="none" fill-rule="evenodd">
        <g id="homepage---expanded" transform="translate(-102.000000, -2018.000000)" fill="#071926" fill-rule="nonzero">
            <g id="bg-icons-2" transform="translate(102.000000, 2018.000000)">
                <g id="Created-with-Sketch.">
                    <g id="Homepage">
                        <g id="1440">
                            <g id="Many-moving-parts">
                                <g id="Shapes">
                                    <g id="Group-3">
                                        <polygon id="Line" points="0.114381917 2 14 15.8856181 15.8856181 14 2 0.114381917"></polygon>
                                        <path d="M48,42.6666667 C45.0544813,42.6666667 42.6666667,45.0544813 42.6666667,48 C42.6666667,50.9455187 45.0544813,53.3333333 48,53.3333333 C50.9455187,53.3333333 53.3333333,50.9455187 53.3333333,48 C53.3333333,45.0544813 50.9455187,42.6666667 48,42.6666667 Z M48,40 C52.418278,40 56,43.581722 56,48 C56,52.418278 52.418278,56 48,56 C43.581722,56 40,52.418278 40,48 C40,43.581722 43.581722,40 48,40 Z" id="Rectangle"></path>
                                        <path d="M16,84 C16,88.418278 12.418278,92 8,92 C3.581722,92 0,88.418278 0,84 L2.66666667,84 C2.66666667,86.9455187 5.05448133,89.3333333 8,89.3333333 C10.9455187,89.3333333 13.3333333,86.9455187 13.3333333,84 L16,84 Z M13.3333333,84 L16,84 C16,88.418278 12.418278,92 8,92 C3.581722,92 0,88.418278 0,84 L2.66666667,84 C2.66666667,86.9455187 5.05448133,89.3333333 8,89.3333333 C10.9455187,89.3333333 13.3333333,86.9455187 13.3333333,84 Z" id="Oval"></path>
                                        <polygon id="Line" points="40.1143819 82 54 95.8856181 55.8856181 94 42 80.1143819"></polygon>
                                        <polygon id="Line" points="56 126.666667 40 126.666667 40 129.333333 56 129.333333"></polygon>
                                        <polygon id="Line" points="80.1143819 202 94 215.885618 95.8856181 214 82 200.114382"></polygon>
                                        <path d="M136,84 C136,88.418278 132.418278,92 128,92 C123.581722,92 120,88.418278 120,84 L122.666667,84 C122.666667,86.9455187 125.054481,89.3333333 128,89.3333333 C130.945519,89.3333333 133.333333,86.9455187 133.333333,84 L136,84 Z M133.333333,84 L136,84 C136,88.418278 132.418278,92 128,92 C123.581722,92 120,88.418278 120,84 L122.666667,84 C122.666667,86.9455187 125.054481,89.3333333 128,89.3333333 C130.945519,89.3333333 133.333333,86.9455187 133.333333,84 Z" id="Oval"></path>
                                        <polygon id="Combined-Shape" points="129.142857 126.857143 135.714286 126.857143 135.714286 129.142857 129.142857 129.142857 129.142857 135.714286 126.857143 135.714286 126.857143 129.142857 120.285714 129.142857 120.285714 126.857143 126.857143 126.857143 126.857143 120.285714 129.142857 120.285714"></polygon>
                                        <polygon id="Line" points="120.114382 162 134 175.885618 135.885618 174 122 160.114382"></polygon>
                                        <path d="M173.333333,202.666667 L162.933382,202.666667 C163.993868,207.891014 168.108986,212.006132 173.333333,213.066618 L173.333333,202.666667 Z M176,200 L176,216 C167.163444,216 160,208.836556 160,200 L176,200 Z" id="Oval"></path>
                                        <path d="M16,203 C16,207.418278 12.418278,211 8,211 C3.581722,211 0,207.418278 0,203 L2.66666667,203 C2.66666667,205.945519 5.05448133,208.333333 8,208.333333 C10.9455187,208.333333 13.3333333,205.945519 13.3333333,203 L16,203 Z M13.3333333,203 L16,203 C16,207.418278 12.418278,211 8,211 C3.581722,211 0,207.418278 0,203 L2.66666667,203 C2.66666667,205.945519 5.05448133,208.333333 8,208.333333 C10.9455187,208.333333 13.3333333,205.945519 13.3333333,203 Z" id="Oval"></path>
                                        <path d="M128,245.962848 L124.314757,253.333333 L131.685243,253.333333 L128,245.962848 Z M128,240 L136,256 L120,256 L128,240 Z" id="Rectangle"></path>
                                        <path d="M162.666667,242.666667 L162.666667,253.333333 L173.333333,253.333333 L173.333333,242.666667 L162.666667,242.666667 Z M160,240 L176,240 L176,256 L160,256 L160,240 Z" id="Rectangle"></path>
                                        <path d="M168,285.962848 L164.314757,293.333333 L171.685243,293.333333 L168,285.962848 Z M168,280 L176,296 L160,296 L168,280 Z" id="Rectangle"></path>
                                        <polygon id="Combined-Shape" points="169.142857 326.857143 175.714286 326.857143 175.714286 329.142857 169.142857 329.142857 169.142857 335.714286 166.857143 335.714286 166.857143 329.142857 160.285714 329.142857 160.285714 326.857143 166.857143 326.857143 166.857143 320.285714 169.142857 320.285714"></polygon>
                                    </g>
                                </g>
                            </g>
                        </g>
                    </g>
                </g>
            </g>
        </g>
    </g>
</svg>