<?xml version="1.0" encoding="UTF-8"?>
<svg width="678px" height="683px" viewBox="0 0 678 683" version="1.1" xmlns="http://www.w3.org/2000/svg" xmlns:xlink="http://www.w3.org/1999/xlink">
    <!-- Generator: sketchtool 53.2 (72643) - https://sketchapp.com -->
    <title>56C556A1-A6C1-477F-8298-C7ABF86CFB60</title>
    <desc>Created with sketchtool.</desc>
    <g id="Page-1" stroke="none" stroke-width="1" fill="none" fill-rule="evenodd" opacity="0.1">
        <g id="homepage---expanded" transform="translate(-591.000000, 0.000000)" fill="#0744DD" fill-rule="nonzero">
            <g id="clipped-rings" transform="translate(591.000000, -60.000000)">
                <path d="M418.2,380.95962 L417.34,380.858672 L416.7,380.858672 L415.84,380.757723 L415.1,380.757723 L411.1,380.252978 L410.32,380.03089 L409.6,379.950131 L408.82,379.728044 L408.1,379.647284 L403,378.21381 L402.16,377.900868 L401.5,377.709065 L400.74,377.386029 L400.1,377.204321 L394.34,374.761357 L391.59,373.216838 L390.94,372.944276 L389.49,372.1064 L388.86,371.69251 L387.49,370.895013 L386.86,370.481123 L385.49,369.683626 L384.82,369.128407 L384.19,368.775086 L380.85,366.433071 L380.22,365.898042 L377,363.566122 L376.85,363.344034 L376.5,363.162326 L376.35,362.940238 L376.02,362.73834 L374.75,361.728851 L374.6,361.648092 L374.45,361.426004 L374.12,361.224107 L373.05,360.315566 L372.7,360.133858 L372.55,359.911771 L372.22,359.709873 L367.12,355.369069 L366.89,355.237836 L354.22,342.952352 L352.45,340.357965 L351.02,337.672724 L349.81,334.825964 L348.81,331.010095 L348.71,330.252978 L348.51,329.495861 L348.1,326.447204 L348.1,325.579043 L348,324.832021 L348,321.601656 L348.1,320.733495 L348.1,319.986473 L348.2,319.118312 L348.2,318.37129 L348.5,315.978801 L348.71,315.120735 L348.8,314.373713 L349.01,313.505552 L349.1,312.75853 L350.1,308.720573 L350.43,307.933172 L350.6,307.20634 L351.22,305.631536 L351.41,304.965274 L352.03,303.39047 L352.46,302.633354 L353.03,301.270543 L353.46,300.513426 L353.73,299.857258 L354.16,299.100141 L354.43,298.443973 L354.86,297.686856 L355.27,297.050878 L355.66,296.37452 L356.47,295.132849 L357.01,294.486776 L357.77,293.315768 L358.31,292.669695 L358.67,292.104381 L360.88,289.863315 L361,289.863315 L361,289.762366 L361.69,289.065819 L361.79,289.065819 L362.29,288.561074 L362.39,288.561074 L362.89,288.056329 L363.15,288.005855 L363.49,287.652534 L363.59,287.652534 L363.89,287.349687 L363.99,287.349687 L364.29,287.04684 L364.39,287.04684 L364.69,286.743994 L364.79,286.743994 L364.99,286.542096 L365.19,286.542096 L365.39,286.340198 L365.49,286.340198 L365.69,286.1383 L365.79,286.1383 L365.99,285.936402 L366.19,285.936402 L366.39,285.734504 L366.6,285.734504 L366.6,285.68403 L367.4,285.280234 L367.72,285.027862 L369.5,284.139511 L369.85,284.048657 L370.7,283.634767 L371.05,283.543913 L371.9,283.130022 L372.3,283.029073 L372.73,282.847365 L373.94,282.534424 L374.42,282.312336 L377.52,281.595599 L377.96,281.595599 L378.82,281.393701 L379.26,281.393701 L379.72,281.292752 L380.16,281.292752 L380.62,281.191803 L381.02,281.191803 L381.42,281.100949 L382.36,281.100949 L382.82,281 L386.92,281 L387.52,281.111044 L388.32,281.111044 L388.92,281.222088 L389.72,281.222088 L390.32,281.333131 L390.78,281.333131 L391.72,281.545124 L392.12,281.545124 L393.12,281.747022 L393.56,281.747022 L396.56,282.36281 L396.96,282.36281 L397.55,282.605088 L399.55,282.978599 L400.14,283.210781 L400.55,283.281446 L401.14,283.513628 L401.55,283.584292 L402.14,283.816475 L402.55,283.887139 L404.14,284.523117 L404.55,284.593782 L409.65,286.703614 L410,286.966081 L411.37,287.56168 L412.81,288.389461 L413.35,288.621643 L413.7,288.884111 L414.25,289.126388 L414.6,289.388855 L415.15,289.631133 L415.5,289.8936 L416.05,290.135877 L416.85,290.741571 L418.21,291.518877 L419.05,292.154856 L419.51,292.427418 L419.95,292.760549 L420.27,292.911973 L423.35,295.082374 L423.8,295.536644 L424.95,296.39471 L425.41,296.667272 L426.25,297.303251 L426.7,297.757521 L427.85,298.615587 L428.3,299.069857 L429.05,299.625076 L429.5,300.079346 L430.25,300.634565 L430.6,300.987886 L430.95,301.240258 L431.3,301.59358 L431.65,301.845952 L432,302.199273 L432.35,302.451645 L432.7,302.804967 L433.05,303.057339 L433.4,303.41066 L433.75,303.663033 L434.1,304.016354 L434.45,304.268726 L434.8,304.622047 L435.15,304.87442 L435.5,305.227741 L435.85,305.480113 L436.2,305.833434 L436.55,306.085807 L436.9,306.439128 L437.25,306.6915 L437.6,307.044821 L438.05,307.398143 L438.31,307.741369 L438.65,308.003836 L439.3,308.660004 L439.65,308.912376 L440,309.265698 L440.35,309.51807 L440.7,309.871391 L441.05,310.123763 L441.7,310.779931 L442.05,311.032304 L443.4,312.395114 L443.75,312.647486 L444.4,313.303654 L444.75,313.556027 L445.1,313.909348 L445.41,314.303049 L445.75,314.565516 L446.4,315.221684 L446.75,315.474056 L450.3,319.057743 L450.61,319.451444 L450.95,319.713911 L451.6,320.370079 L451.95,320.824349 L452.5,321.379568 L452.85,321.833838 L453.1,322.08621 L453.54,322.409247 L453.8,322.792853 L454.87,324.00424 L455.02,324.084999 L455.57,324.91278 L455.72,324.993539 L456.57,326.225116 L456.72,326.305875 L458.3,328.748839 L458.45,328.890168 L458.5,329.182919 L459.2,330.263073 L459.35,330.404401 L459.4,330.697153 L460,331.777307 L460.15,331.918635 L460.15,332.181102 L460.25,332.312336 L460.57,332.978599 L461.77,336.390672 L462.59,339.8936 L463,343.376338 L463,346.86917 L462.6,350.261054 L462.39,351.129215 L462.3,351.876237 L461.89,353.551989 L461.57,354.420149 L461.39,355.167171 L460.47,357.650515 L458.93,360.769836 L458.41,361.516858 L458.05,362.253786 L457.51,363.031092 L457.13,363.697355 L456.61,364.444377 L455.98,365.191399 L455.51,365.857662 L454.38,367.210378 L453.75,367.836261 L453.18,368.522714 L452.55,369.148597 L451.83,369.784575 L451.25,370.359984 L450.53,370.995962 L449.79,371.530991 L449.12,372.1064 L447.59,373.115889 L446.8,373.711488 L444.46,375.144963 L441,376.921664 L440.06,377.234605 L439.2,377.628306 L438.26,377.941248 L437.4,378.334949 L435.4,378.960832 L434.47,379.172825 L433.47,379.465576 L430.65,380.07127 L428.89,380.293358 L428.04,380.485161 L426.39,380.697153 L425.39,380.697153 L423.85,380.899051 L422.99,380.899051 L422.25,381 L418.2,380.95962 Z M417.4,379.849182 L418.26,379.950131 L422.26,379.950131 L423,379.849182 L423.86,379.849182 L425.4,379.647284 L426.4,379.647284 L427.94,379.445387 L428.79,379.253584 L430.54,379.041591 L431.28,378.859883 L433.28,378.445992 L434.28,378.15324 L435.21,377.941248 L437.06,377.355744 L437.92,376.962043 L438.86,376.649102 L439.72,376.255401 L440.66,375.942459 L442.3,375.155058 L446.3,372.853422 L447.76,371.763174 L448.59,371.248334 L449.22,370.68302 L449.96,370.147991 L450.63,369.572582 L451.2,368.997173 L451.93,368.361195 L452.5,367.785786 L453.07,367.099334 L453.7,366.47345 L454.77,365.191399 L455.24,364.515041 L455.87,363.768019 L456.34,363.101757 L456.72,362.435494 L457.24,361.688472 L457.6,360.951545 L458.14,360.174238 L458.9,358.730668 L459.19,358.044216 L459.6,357.216434 L460.48,354.83404 L460.66,354.087018 L460.98,353.218857 L461.36,351.664244 L461.45,350.917222 L461.66,350.049061 L462.05,346.778316 L462.05,343.406622 L461.65,340.034928 L460.86,336.663234 L458.5,331.141328 L458.35,331 L458.3,330.707248 L457.6,329.627095 L457.45,329.485766 L457.45,329.193014 L455.98,327.002423 L455.83,326.921664 L454.98,325.690087 L454.83,325.609328 L454.28,324.781547 L454.13,324.700787 L453.85,324.276802 L452.85,323.045225 L452.54,322.813043 L452.19,322.459721 L451.84,322.005451 L451.29,321.450232 L450.94,320.995962 L450.39,320.440743 L449.94,320.087422 L449.64,319.683626 L446.19,316.200888 L445.84,315.948516 L445.19,315.292348 L444.74,314.939027 L444.44,314.535231 L444.19,314.282859 L443.84,314.030487 L443.19,313.374319 L442.84,313.121946 L441.49,311.759136 L441.14,311.506764 L440.49,310.850596 L440.14,310.598223 L439.79,310.244902 L439.44,309.99253 L439.09,309.639209 L438.74,309.386836 L438.09,308.730668 L437.64,308.377347 L437.38,308.034121 L437.04,307.771654 L436.69,307.418332 L436.34,307.16596 L435.99,306.812639 L435.64,306.560267 L435.29,306.206945 L434.94,305.954573 L434.59,305.601252 L434.24,305.348879 L433.89,304.995558 L433.54,304.743186 L433.19,304.389865 L432.84,304.137492 L432.49,303.784171 L432.14,303.531799 L431.79,303.178478 L431.44,302.926105 L431.09,302.572784 L430.74,302.320412 L430.39,301.967091 L430.04,301.714718 L429.69,301.361397 L428.94,300.806178 L428.49,300.351908 L427.74,299.796689 L427.29,299.342419 L426,298.484353 L425.55,298.030083 L424.8,297.474864 L424.34,297.202302 L423.1,296.263477 L422.65,295.809207 L422.3,295.556834 L421.84,295.284272 L420.6,294.345447 L420.14,294.072885 L419.7,293.739754 L419.38,293.58833 L418.9,293.235009 L418.44,292.962447 L417.6,292.326469 L416.24,291.549162 L415.45,290.953563 L414.9,290.711286 L414.55,290.448819 L414,290.206541 L413.65,289.944074 L413.1,289.701797 L412.75,289.43933 L412.31,289.257622 L410.48,288.248132 L409.4,287.793862 L409.05,287.531395 L404.21,285.512417 L403.8,285.441752 L402.21,284.805774 L401.8,284.73511 L401.21,284.502928 L400.8,284.432263 L400.21,284.200081 L399.8,284.129417 L399.21,283.897234 L397.21,283.523723 L396.72,283.33192 L396.41,283.33192 L393.41,282.716132 L392.95,282.716132 L392.01,282.504139 L391.61,282.504139 L390.61,282.302241 L390.17,282.302241 L389.57,282.191197 L388.77,282.191197 L388.17,282.080153 L387.37,282.080153 L386.77,281.96911 L382.83,281.96911 L382.37,282.070059 L381.47,282.070059 L381.07,282.160913 L380.64,282.160913 L380.17,282.261861 L379.73,282.261861 L379.27,282.36281 L378.83,282.36281 L377.97,282.564708 L377.53,282.564708 L374.63,283.251161 L374.19,283.453059 L372.99,283.766 L372.56,283.937614 L372.15,284.048657 L371.29,284.462548 L370.94,284.553402 L370.09,284.967293 L369.74,285.058147 L368.19,285.845548 L367.87,286.09792 L366.99,286.552191 L366.67,285.896023 L366.67,286.299818 L366.92,286.552191 L366.58,286.905512 L366.38,286.905512 L366.18,287.10741 L366.08,287.10741 L365.88,287.309307 L365.78,287.309307 L365.58,287.511205 L365.38,287.511205 L365.18,287.713103 L365.08,287.713103 L364.78,288.01595 L364.68,288.01595 L364.38,288.318797 L364.28,288.318797 L363.98,288.621643 L363.88,288.621643 L363.59,288.874016 L362.92,289.37876 L362.78,289.530184 L362.68,289.530184 L362.18,290.034928 L362.08,290.034928 L361.97,290.145972 L361.97,290.246921 L361.38,290.84252 L361.28,290.84252 L359.42,292.710075 L359.09,293.245104 L358.55,293.891177 L357.79,295.062185 L357.25,295.708258 L356.49,296.879265 L356.1,297.555623 L355.69,298.191601 L355.3,298.867959 L355.03,299.524127 L354.6,300.281244 L354.33,300.937412 L353.9,301.694529 L353.33,303.057339 L352.9,303.814456 L352.34,305.258025 L352.15,305.924288 L351.53,307.499091 L351.36,308.225924 L351.03,309.013325 L350.03,312.869574 L349.95,313.616596 L349.74,314.484757 L349.65,315.231779 L349.44,316.099939 L349.15,318.361195 L349.15,319.108217 L349.05,319.976378 L349.05,320.7234 L348.95,321.591561 L348.95,324.620028 L349.05,325.36705 L349.05,326.235211 L349.45,329.193014 L349.64,329.950131 L349.74,330.707248 L350.74,334.371694 L352.21,337.723198 L354.08,340.892994 L355.08,342.265899 L355.35,342.437513 L358.22,345.566929 L358.37,345.647688 L358.51,345.92025 L367.51,354.349485 L367.74,354.480719 L372.98,358.892187 L373.33,359.073895 L373.48,359.295982 L373.81,359.49788 L374.88,360.40642 L375.23,360.588128 L375.51,360.911165 L376.78,361.920654 L377.13,362.102362 L377.28,362.32445 L377.63,362.506158 L377.78,362.728246 L378.11,362.930143 L380.11,364.545326 L380.75,364.989501 L381.38,365.524531 L384.65,367.816071 L385.31,368.199677 L385.98,368.754896 L387.31,369.512013 L387.94,369.925903 L389.31,370.7234 L389.94,371.137291 L391.31,371.934787 L391.96,372.207349 L394.71,373.751868 L400.36,376.144357 L401,376.326065 L401.76,376.649102 L402.4,376.83081 L403.24,377.143751 L408.3,378.546941 L409.02,378.6277 L409.8,378.849788 L410.52,378.930547 L411.3,379.152635 L415.12,379.63719 L415.86,379.63719 L416.72,379.738139 L417.4,379.849182 Z" id="Shape"></path>
                <path d="M409.274003,432.959776 L408.418787,432.889385 L407.664185,432.889385 L404.333875,432.607819 L403.478659,432.456981 L402.713996,432.396645 L399.383685,431.823458 L398.478163,431.602228 L397.703438,431.471501 L382.229065,427.207792 L381.514709,426.936282 L381.092131,426.855835 L380.377775,426.584325 L380.106118,426.584325 L379.331393,426.292704 L378.979246,426.232368 L373.02292,424.221185 L372.560097,424.130682 L371.111262,423.577606 L370.839605,423.527327 L367.720583,422.280393 L365.768679,421.496032 L364.762543,421.154131 L363.756407,420.71167 L362.750271,420.379825 L360.737999,419.525072 L359.812353,419.173115 L352.135535,415.784271 L351.129399,415.27142 L349.207679,414.446834 L348.201543,413.933983 L347.285959,413.52169 L346.279823,413.018894 L345.364239,412.606602 L341.581168,410.595418 L340.665584,410.183126 L331.449377,405.024441 L330.533794,404.441198 L329.628271,403.96857 L320.573046,398.317145 L319.667524,397.66351 L318.812308,397.110435 L317.916847,396.466856 L317.071693,395.913781 L316.176232,395.270202 L314.616721,394.123828 L306.819166,388.412067 L299.45425,382.177399 L298.941121,381.563988 L298.448114,381.121528 L296.948971,379.542749 L294.172036,376.274576 L293.749459,375.681277 L293.296697,375.148313 L291.666757,372.795229 L288.889821,367.968389 L288.587981,367.274531 L288.276078,366.681232 L286.917795,363.392947 L285.418652,358.616387 L285.136934,357.168335 L284.945768,356.504645 L284.66405,355.056593 L284.59362,354.302399 L284.462823,353.568317 L284.392393,352.824179 L284.261595,352.080041 L284.060368,349.787293 L284.060368,348.972763 L284,348.309073 L284,345.09118 L284.07043,344.27665 L284.07043,343.472177 L286.022334,321.510056 L286.233622,320.142451 L286.495217,317.558081 L286.696445,316.200532 L286.968101,313.616162 L287.370556,310.981512 L287.501354,309.674242 L288.909944,300.553526 L289.181601,299.195978 L289.382828,297.949044 L289.654485,296.591495 L289.855712,295.334506 L291.46553,287.561282 L291.807616,286.274125 L292.069211,285.027192 L292.411298,283.729978 L292.682954,282.493101 L294.363202,276.057314 L294.775717,274.760101 L295.097681,273.513167 L295.510197,272.22601 L295.842222,270.979076 L297.049585,267.218164 L297.53253,265.931006 L297.924923,264.684073 L300.681736,257.192415 L301.235111,255.965593 L301.687872,254.728716 L304.193151,249.208018 L306.145055,245.376714 L309.36469,239.966631 L309.978433,239.101822 L310.501624,238.277237 L314.153898,233.450397 L314.858193,232.706259 L315.431691,231.962121 L318.148258,229.106241 L318.842492,228.452606 L319.486419,227.768804 L321.679796,225.838068 L322.434398,225.254825 L323.148755,224.641414 L326.167163,222.348665 L330.191707,219.794462 L331.0268,219.362058 L331.811586,218.879374 L336.067542,216.74752 L338.794171,215.601145 L340.625338,214.967623 L341.480554,214.615666 L346.219455,213.187725 L347.225591,212.966495 L348.231727,212.694986 L351.250135,212.051407 L352.256271,211.910624 L353.262408,211.69945 L354.942655,211.468164 L354.942655,211.407828 L358.464131,210.774306 L365.507084,210.211174 L369.018498,210.070391 L370.718868,210.070391 L372.449422,210 L375.769672,210 L377.470042,210.070391 L379.120105,210.070391 L380.890904,210.140783 L382.591274,210.281566 L384.251399,210.351957 L389.282079,210.774306 L394.312759,211.417884 L396.013129,211.69945 L397.602824,211.910624 L399.303194,212.19219 L400.933135,212.544147 L402.52283,212.825712 L407.382467,213.89164 L413.781493,215.581034 L420.110088,217.592217 L424.818805,219.291667 L432.495624,222.469336 L435.514032,223.88722 L443.049991,227.698413 L448.976132,231.097312 L450.465214,232.022457 L451.924111,232.857098 L457.729516,236.678346 L462.035779,239.695121 L467.690263,243.928662 L474.733216,249.801317 L475.105486,250.183442 L475.42745,250.404672 L476.282666,251.138754 L479.371503,254.034858 L479.763896,254.517541 L480.105983,254.809163 L481.987457,256.63934 L482.37985,257.13208 L482.721936,257.413645 L483.828686,258.570076 L484.200957,259.032648 L484.532981,259.314214 L484.935436,259.806953 L485.277522,260.088519 L486.344026,261.355565 L486.686113,261.63713 L492.179616,268.193588 L492.481456,268.65616 L494.755324,271.522096 L494.906244,271.522096 L494.906244,271.662879 L495.026981,271.662879 L495.026981,271.874053 L495.127594,271.874053 L495.198024,272.246122 L495.580356,272.789141 L495.801705,272.789141 L495.801705,273.000316 L495.902319,273.000316 L495.902319,273.281881 L496.063301,273.281881 L496.163914,273.774621 L496.405387,273.774621 L496.405387,274.056187 L496.57643,274.056187 L496.57643,274.267361 L496.687105,274.267361 L496.687105,274.548927 L496.848087,274.548927 L496.908455,274.920996 L497.119744,275.202561 L497.119744,275.3534 L497.119744,275.3534 L498.266739,277.123241 L499.343304,278.963474 L501.23484,282.583604 L502.864781,286.274125 L504.213003,289.974702 L505.027973,292.750135 L505.239262,293.695391 L505.500857,294.580312 L505.913373,296.521104 L506.054232,297.46636 L506.245398,298.351281 L506.527116,300.292073 L506.597546,301.237329 L506.728343,302.192641 L507,305.963609 L507,309.804969 L506.667975,314.561418 L505.983803,319.388258 L505.45055,322.304473 L504.695948,325.220689 L504.504783,326.226281 L503.961469,328.177128 L503.619383,329.18272 L503.357787,330.138032 L500.289072,338.816288 L498.196309,343.492289 L497.320971,345.26213 L496.516062,347.021916 L496.033117,347.89678 L495.238269,349.626398 L494.28244,351.34596 L493.900108,352.160489 L492.95434,353.940386 L492.551886,354.775027 L489.724644,359.802985 L489.171269,360.67785 L487.77274,363.111382 L484.663779,368.018669 L484.221079,368.823142 L483.134452,370.472312 L482.661568,371.236562 L478.395551,377.642181 L477.771747,378.436598 L476.182052,380.739403 L475.558248,381.53382 L475.035057,382.288014 L474.411252,383.092487 L473.364871,384.620987 L472.751128,385.415404 L472.227937,386.169598 L470.99039,387.688041 L470.487322,388.422123 L466.291734,393.741703 L465.788666,394.475785 L457.266694,404.803211 L457.055405,404.974161 L455.998962,406.28143 L455.787674,406.452381 L454.781538,407.649035 L445.384227,418.07702 L443.482629,419.927309 L440.16238,422.702742 L439.468147,423.205538 L438.824219,423.748557 L438.099801,424.211129 L436.781763,425.216721 L434.065196,426.926227 L432.626421,427.660308 L431.982494,428.062545 L431.157463,428.384334 L429.789117,429.068137 L426.207273,430.496077 L425.412426,430.727363 L424.718192,430.988817 L423.198926,431.431277 L422.41414,431.582116 L421.719906,431.783234 L417.846282,432.497204 L417.061496,432.577652 L416.377324,432.708378 L413.972658,432.929609 L413.127504,432.929609 L412.43327,433 L409.274003,432.959776 Z M408.469094,431.883793 L409.314248,431.954185 L412.423209,431.954185 L413.117443,431.883793 L414.002842,431.883793 L416.306894,431.672619 L416.991067,431.541892 L417.775853,431.461445 L421.558924,430.767587 L422.253158,430.566468 L423.037944,430.405574 L424.466658,430.003337 L425.160892,429.731827 L425.945678,429.500541 L430.161388,427.770924 L430.815376,427.429022 L431.610224,427.127345 L432.193783,426.74522 L433.65268,426.011138 L436.288757,424.351912 L437.596733,423.34632 L438.301029,422.90386 L438.914772,422.380952 L440.192565,421.375361 L443.392077,418.579816 L461.915042,397.583063 L464.933451,393.832206 L465.456641,393.088068 L467.901552,390.071293 L468.40462,389.337211 L469.632106,387.768488 L470.155297,387.014295 L471.352599,385.576299 L471.87579,384.822105 L472.499594,384.017632 L473.556037,382.489132 L474.179841,381.694715 L474.692971,380.940521 L475.316775,380.146104 L476.916531,377.843299 L477.530274,377.048882 L481.816414,370.72371 L482.82255,369.12482 L483.365864,368.330402 L483.808563,367.525929 L484.89519,365.886815 L491.666486,354.352679 L492.521702,352.602949 L493.004647,351.748196 L493.39704,350.923611 L494.35287,349.204049 L495.127594,347.484488 L495.620601,346.599567 L498.085634,341.360435 L498.478027,340.354843 L499.363427,338.434163 L500.158275,336.483315 L500.4903,335.477724 L501.224779,333.5671 L502.542817,329.765963 L502.794351,328.820707 L503.408094,326.900027 L503.66969,325.894435 L503.860855,324.939123 L504.605396,322.022908 L505.269446,318.272051 L505.802698,314.400523 L506.134723,309.714466 L506.134723,305.943497 L505.863066,302.252976 L505.74233,301.297664 L505.661839,300.352408 L505.400244,298.471952 L505.209078,297.597087 L505.068219,296.651831 L504.665764,294.771374 L504.41423,293.89651 L504.202942,292.951254 L503.408094,290.236156 L502.069933,286.60597 L500.530545,282.995896 L498.639009,279.486382 L496.506001,276.037202 L496.324896,276.037202 L496.324896,275.755637 L496.163914,275.755637 L496.163914,275.544462 L496.063301,275.544462 L496.063301,275.262897 L495.902319,275.262897 L495.83189,274.890828 L495.711153,274.770157 L495.499865,274.770157 L495.439496,274.408144 L495.117533,273.995851 L494.966613,273.995851 L494.896183,273.623782 L494.383054,272.869589 L494.161704,272.869589 L494.111397,272.517632 L493.890047,272.517632 L493.789433,272.024892 L491.585995,269.229347 L491.284154,268.756719 L485.881204,262.320933 L485.539117,262.039367 L484.432368,260.772321 L484.090282,260.4807 L483.687827,259.998016 L483.355802,259.706394 L481.906966,258.127615 L481.534696,257.805826 L481.142303,257.323142 L480.800217,257.031521 L478.918742,255.201344 L478.526349,254.708604 L477.781808,254.075081 L474.692971,251.189033 L474.330762,250.937635 L471.936158,248.785669 L471.573949,248.544327 L466.975907,244.713023 L459.932954,239.443723 L455.656876,236.497339 L451.360675,233.681683 L449.911839,232.857098 L448.422758,231.931953 L442.5268,228.553166 L438.049495,226.240305 L432.012678,223.364313 L424.386167,220.156475 L418.178307,217.984398 L411.889957,216.134109 L407.060504,214.867063 L402.251173,213.811192 L400.661478,213.539683 L399.031538,213.17767 L397.371413,212.90616 L395.781718,212.694986 L394.091409,212.403364 L389.14122,211.779897 L384.19103,211.357549 L382.540967,211.287157 L380.800352,211.106151 L379.069798,211.035759 L377.419735,211.035759 L375.769672,211.005592 L372.368932,211.005592 L370.638378,211.075983 L368.927946,211.075983 L365.456777,211.216766 L356.401552,212.14191 L356.401552,212.202246 L353.383144,212.694986 L352.377008,212.896104 L351.370872,213.046943 L348.453077,213.670409 L347.446941,213.941919 L346.440805,214.163149 L341.772334,215.560922 L339.991473,216.25478 L339.096012,216.546402 L336.530365,217.662608 L332.334777,219.764295 L331.570114,220.236923 L330.735021,220.669327 L328.320294,222.167659 L323.792682,225.445887 L323.078325,226.059298 L322.323723,226.642541 L320.190715,228.533054 L319.556849,229.196744 L318.872676,229.850379 L316.206416,232.655979 L315.632918,233.390061 L314.928623,234.134199 L311.376963,238.840368 L310.853772,239.664953 L310.240029,240.529762 L307.040516,245.849342 L305.108735,249.630366 L302.63364,255.100785 L302.180879,256.337662 L301.627504,257.564484 L298.890814,265.005862 L298.48836,266.252796 L298.015476,267.539953 L296.818174,271.250586 L296.486149,272.49752 L296.073633,273.784677 L295.751669,275.031611 L295.339154,276.328824 L293.668968,282.704275 L293.407372,283.961264 L293.065286,285.248422 L292.803691,286.495355 L292.461604,287.782513 L290.851787,295.515512 L290.660621,296.75239 L290.388964,298.109939 L290.187737,299.366928 L289.91608,300.724477 L288.50749,309.774802 L288.376692,311.092127 L287.974238,313.726777 L287.702581,316.301091 L287.501354,317.668696 L287.239758,320.253066 L287.02847,321.610615 L286.233622,329.484398 L286.163193,330.791667 L285.760738,334.814033 L285.690309,336.131358 L285.559511,337.488907 L285.489081,338.735841 L285.227486,341.440882 L285.086627,343.542569 L285.086627,344.347042 L285.026259,345.161571 L285.026259,348.299017 L285.086627,348.952652 L285.086627,349.777237 L285.287854,351.979482 L285.418652,352.713564 L285.489081,353.457702 L285.619879,354.20184 L285.690309,354.935922 L285.951904,356.303526 L286.14307,356.967217 L286.424788,358.415269 L287.430924,361.743777 L289.221846,366.278995 L289.54381,366.872294 L289.825528,367.546041 L292.552157,372.272321 L294.13179,374.56507 L294.584552,375.098034 L295.38946,376.163961 L298.186519,379.371798 L302.321738,383.394165 L304.605667,385.405348 L305.159042,385.787473 L307.473155,387.647817 L316.156109,393.962933 L317.021386,394.516008 L317.916847,395.169643 L318.772063,395.712662 L319.667524,396.366297 L320.512678,396.909316 L321.408139,397.562951 L330.382873,403.184208 L331.278334,403.656836 L332.193918,404.240079 L333.089379,404.712707 L335.866315,406.341766 L338.592944,407.80993 L339.59908,408.393173 L341.400063,409.398764 L342.305586,409.801001 L346.088657,411.812184 L347.004241,412.214421 L348.010377,412.727273 L348.9159,413.129509 L349.922036,413.642361 L351.823633,414.466946 L352.829769,414.979798 L360.275176,418.258027 L362.217019,419.022276 L363.162787,419.454681 L364.168923,419.786526 L365.175059,420.228986 L367.086717,420.922845 L368.092853,421.355249 L372.942429,423.094922 L373.39519,423.185426 L374.844026,423.738501 L375.115683,423.788781 L379.271025,425.216721 L379.703664,425.297168 L380.41802,425.568678 L380.689677,425.618957 L381.464402,425.910579 L381.816549,425.970915 L382.601335,426.262536 L383.064158,426.353039 L383.768453,426.624549 L384.201092,426.704996 L384.48281,426.825667 L384.945633,426.916171 L385.649928,427.18768 L386.082566,427.268128 L386.364284,427.388799 L386.716432,427.449134 L389.07079,428.17316 L389.503429,428.253608 L389.785147,428.374278 L390.137295,428.434614 L391.354719,428.806683 L392.028831,428.93741 L392.501714,429.088249 L392.924292,429.168696 L393.216071,429.289367 L393.558157,429.349702 L394.312759,429.570933 L394.705152,429.631268 L395.178036,429.792163 L395.610675,429.87261 L395.892393,429.993281 L396.244541,430.053617 L397.965033,430.486021 L398.729697,430.616748 L399.635219,430.837978 L402.885039,431.401109 L403.649702,431.461445 L404.504918,431.612284 L407.744676,431.883793 L408.469094,431.883793 Z M496.838026,275.534407 L496.838026,275.62491 L497.01913,275.504239 L496.838026,275.534407 Z M495.83189,273.965684 L495.76146,274.056187 L495.902319,273.955628 L495.83189,273.965684 Z" id="Shape"></path>
                <path d="M413.939449,475 L412.695526,474.899351 L411.531857,474.899351 L406.576231,474.496756 L405.332309,474.285393 L404.16864,474.194809 L399.213014,473.379554 L397.878807,473.077607 L396.705106,472.87631 L393.484953,472.141573 L393.033529,471.960405 L392.491821,471.869821 L391.80967,471.648394 L390.806507,471.467226 L390.144419,471.245798 L389.512427,471.135085 L389.061003,470.953917 L388.519295,470.863333 L387.837144,470.641905 L386.833981,470.460737 L386.15183,470.23931 L385.710438,470.158791 L385.048351,469.937364 L384.416358,469.82665 L383.964934,469.645482 L383.423226,469.554898 L382.741075,469.343535 L382.299684,469.252951 L381.035698,468.840291 L380.594306,468.749707 L379.932219,468.52828 L379.300226,468.417566 L378.848803,468.236398 L378.307094,468.145814 L377.153457,467.733154 L376.491369,467.612375 L376.039946,467.431207 L375.498238,467.340624 L374.3446,466.927963 L373.682512,466.807185 L372.609128,466.414654 L371.977135,466.30394 L370.903751,465.91141 L370.462359,465.830891 L369.328784,465.418231 L368.777045,465.327647 L366.991414,464.703624 L366.550023,464.623105 L364.784455,463.999082 L364.343064,463.918563 L362.577497,463.304605 L362.136105,463.214021 L359.889019,462.398766 L359.236963,462.277987 L357.060099,461.482861 L356.618708,461.402342 L351.943967,459.781896 L350.409128,459.157873 L347.53005,458.151385 L346.085495,457.537427 L344.620877,457.044248 L341.621419,455.876721 L340.237054,455.383542 L328.770899,450.542333 L327.346408,449.827726 L324.457298,448.630005 L323.032806,447.915398 L321.648441,447.32157 L320.223949,446.606963 L318.839584,446.013135 L313.221871,443.144643 L311.837506,442.550815 L298.074108,435.193385 L296.729869,434.368065 L295.365567,433.683652 L294.021329,432.858332 L292.626932,432.053141 L291.312788,431.247951 L289.918391,430.44276 L287.300136,428.832379 L285.905739,428.027188 L283.287483,426.416806 L281.893086,425.611616 L280.558879,424.685646 L279.274831,423.900586 L277.950655,422.974616 L276.666606,422.189555 L275.342431,421.263586 L272.643922,419.562621 L267.417442,415.929198 L266.193583,415.013293 L260.997198,411.4 L257.556349,408.763 L256.683597,408.189302 L255.830908,407.444501 L254.948125,406.750024 L254.125531,406.035417 L253.242747,405.34094 L250.022594,402.532837 L249.270221,401.677322 L248.517849,401.023105 L246.290827,398.778636 L245.558518,397.953315 L244.886399,397.268903 L242.147763,394.118595 L241.525802,393.293274 L240.843651,392.518278 L239.619792,390.877702 L238.997831,389.951733 L238.415996,389.166672 L236.790872,386.620256 L234.282964,382.292356 L233.841573,381.285868 L233.360054,380.420288 L231.353728,375.750182 L231.042747,374.804083 L230.651514,373.797595 L229.126706,368.916126 L228.715409,366.903149 L228.424492,365.896661 L228.013195,363.883684 L227.902847,362.826871 L227.712246,361.759994 L227.601898,360.753505 L227.411297,359.686628 L227.100316,356.425605 L227.100316,355.227884 L227,354.27172 L227,349.692198 L227.100316,348.534737 L227.100316,347.377275 L227.200633,346.219813 L227.300949,344.327615 L227.702214,340.48283 L227.802531,338.69128 L228.003163,336.758823 L228.103479,334.866624 L228.705377,329.21016 L228.805694,327.317962 L229.959331,315.974838 L230.270312,314.04238 L230.661545,310.338503 L230.972526,308.406045 L231.36376,304.702168 L231.975689,300.958031 L232.16629,299.075898 L234.282964,286.062003 L234.68423,284.129546 L234.985178,282.337997 L235.386444,280.405539 L235.687393,278.61399 L238.094984,267.542618 L238.606597,265.710809 L238.997831,263.919259 L239.509444,262.087451 L239.900678,260.295901 L242.418617,251.116727 L243.030547,249.274854 L243.522097,247.493369 L244.134026,245.651495 L244.625576,243.870011 L246.441301,238.505428 L247.143516,236.673619 L247.745413,234.88207 L248.447628,233.050261 L249.049526,231.349296 L251.858382,224.193163 L252.680976,222.451939 L253.363127,220.670454 L257.094894,212.78965 L260.014099,207.324418 L263.234252,202.070549 L264.849345,199.634847 L265.772255,198.406931 L266.554722,197.219275 L268.380479,194.783573 L272.001898,190.334895 L273.005061,189.328406 L273.867781,188.251464 L277.880434,184.22551 L278.883597,183.299541 L279.88676,182.293053 L281.020334,181.346954 L282.023498,180.461244 L283.137009,179.535275 L284.270583,178.720019 L285.343967,177.824244 L288.684501,175.398607 L292.205603,173.063554 L295.847085,170.939864 L297.080976,170.315841 L298.254677,169.631429 L304.6047,166.611964 L305.948938,166.08859 L307.333303,165.494762 L308.657479,164.981453 L309.991685,164.568793 L312.670131,163.562304 L319.692273,161.549327 L321.136828,161.237316 L322.611478,160.844786 L327.05549,159.928881 L328.59033,159.717519 L330.06498,159.425637 L332.77352,159.063301 L332.77352,158.912328 L333.174785,158.912328 L333.174785,158.811679 L333.576051,158.811679 L334.268233,158.71103 L334.368549,158.610381 L334.579214,158.610381 L334.579214,158.509733 L335.371713,158.509733 L335.472029,158.409084 L336.073927,158.409084 L336.174243,158.308435 L336.776141,158.308435 L336.876457,158.207786 L337.478355,158.207786 L337.578671,158.107137 L337.889652,158.107137 L348.282422,157.301947 L353.518934,157.100649 L356.046905,157.100649 L358.635066,157 L363.771261,157 L366.299232,157.100649 L368.787076,157.100649 L371.415364,157.201298 L373.943335,157.402595 L376.431179,157.503244 L383.87465,158.107137 L391.31812,159.012977 L393.846091,159.425637 L396.23362,159.717519 L398.761591,160.130179 L401.189245,160.633423 L403.576774,161.036018 L410.819611,162.545751 L420.379756,164.971388 L429.829553,167.789555 L436.851695,170.215192 L448.307817,174.74439 L452.852146,176.757367 L464.097605,182.192404 L472.945504,187.033613 L475.162494,188.352113 L477.359422,189.549834 L486.016719,195.005001 L492.446995,199.342966 L500.883597,205.381896 L503.521916,207.525716 L504.083687,207.888052 L505.32761,208.89454 L505.889381,209.256876 L507.735201,210.806868 L508.296972,211.169204 L511.306462,213.725684 L511.838138,214.259123 L512.369815,214.591264 L513.613737,215.597753 L514.747311,216.735085 L516.52291,218.214623 L517.054587,218.748061 L518.228287,219.75455 L518.790059,220.418832 L519.331767,220.861687 L519.863443,221.395126 L520.435246,221.868175 L521.568821,223.005507 L522.140624,223.478557 L522.702395,224.142839 L523.244103,224.585694 L524.879259,226.22627 L525.410935,226.860358 L525.952643,227.303213 L526.514415,227.967495 L527.056123,228.41035 L527.617894,229.074632 L528.089381,229.547682 L528.621057,230.181769 L529.162765,230.624624 L530.226118,231.892799 L531.299503,232.969742 L531.831179,233.60383 L532.302666,234.076879 L533.305829,235.31486 L533.777316,235.787909 L535.783642,238.233676 L536.255129,238.706726 L537.258292,239.944706 L537.699684,240.588859 L541.170628,244.79598 L541.391324,244.79598 L541.391324,244.997278 L541.591957,244.997278 L541.591957,245.299225 L541.692273,245.299225 L541.762494,245.671625 L542.093538,245.993702 L542.093538,246.09435 L542.394487,246.396297 L542.394487,246.496946 L542.504835,246.607659 L542.946227,246.607659 L543.006417,246.909606 L543.146859,246.909606 L543.257207,247.312201 L543.447808,247.312201 L543.51803,247.684602 L543.648441,247.805381 L543.648441,247.906029 L543.758789,248.016743 L543.94939,248.016743 L544.059738,248.419339 L544.350655,248.419339 L544.350655,248.721285 L544.450972,248.721285 L544.561319,249.12388 L544.852237,249.12388 L544.852237,249.546605 L545.153186,249.848552 L545.153186,249.949201 L545.253502,250.04985 L545.253502,250.180693 L545.253502,250.180693 L546.968911,252.696914 L548.584004,255.333914 L551.402892,260.487134 L553.820515,265.751068 L555.826841,271.015002 L557.040669,274.970502 L557.351649,276.319196 L557.742883,277.587371 L558.354812,280.34515 L558.555445,281.683779 L558.856394,282.962019 L559.257659,285.709733 L559.368007,287.058427 L559.558608,288.437316 L560,293.832094 L560,299.30739 L559.498418,306.091122 L558.495255,312.975502 L558.194306,314.404716 L557.993674,315.693021 L557.692725,317.122235 L557.281428,318.571578 L556.990511,319.849818 L556.579214,321.289096 L556.288296,322.657921 L555.475734,325.425764 L554.964121,326.854977 L554.572887,328.233866 L552.044916,335.098117 L551.432987,336.52733 L550.941437,337.906219 L549.11568,342.073081 L548.413466,343.49223 L547.20967,346.199683 L544.099864,352.449976 L543.377587,353.687957 L542.193854,356.173983 L540.769363,358.61975 L540.187528,359.797341 L539.465251,361.035322 L536.75671,365.967115 L536.044465,367.094382 L533.917759,370.677481 L533.105197,371.915461 L532.413014,373.093053 L531.700768,374.22032 L531.008586,375.407976 L527.186534,381.275803 L526.394035,382.40307 L525.721916,383.570597 L524.889291,384.717993 L523.404609,387.012787 L522.582015,388.140054 L521.799548,389.337775 L519.371893,392.669251 L518.589426,393.866973 L516.964302,396.091312 L516.051423,397.228644 L513.653864,400.519861 L512.740985,401.657193 L511.948486,402.734135 L511.035608,403.871467 L509.440578,406.055547 L508.5277,407.192879 L507.735201,408.269821 L506.822323,409.407153 L505.899413,410.413641 L505.126977,411.480519 L503.311252,413.724988 L502.518753,414.801931 L501.585811,415.808419 L499.810212,418.052888 L498.887302,419.059376 L498.114867,420.126254 L497.201988,421.263586 L496.279078,422.270074 L494.493448,424.474284 L485.46498,434.820984 L485.123904,435.082671 L484.863082,435.424877 L484.511975,435.777148 L484.261184,436.129419 L483.910077,436.48169 L483.55897,436.93461 L483.217894,437.196297 L482.957072,437.538503 L482.605965,437.890774 L482.355174,438.243045 L481.000904,439.601804 L480.750113,439.954075 L480.399006,440.306346 L480.047899,440.759266 L479.706823,441.020953 L479.446001,441.363159 L479.094894,441.71543 L478.743787,442.168349 L478.342521,442.470296 L478.091731,442.721918 L477.84094,443.074189 L477.489833,443.42646 L477.138726,443.87938 L476.79765,444.141067 L476.536828,444.483273 L476.185721,444.835544 L475.834614,445.288463 L475.433348,445.59041 L475.182558,445.842032 L474.931767,446.194303 L474.58066,446.546574 L474.229553,446.999494 L473.888477,447.261181 L473.627655,447.603387 L472.273385,448.962146 L472.022594,449.314417 L470.367375,450.975123 L469.484591,451.981611 L467.708992,453.863744 L466.705829,454.789714 L465.823046,455.675423 L464.900136,456.500744 L463.896972,457.326064 L463.014189,458.111125 L460.084953,460.446178 L459.081789,461.17085 L458.078626,461.955911 L457.025305,462.600063 L455.018979,463.989017 L451.006326,466.424719 L448.859557,467.431207 L447.856394,468.014971 L446.66263,468.457826 L444.596114,469.464314 L439.259286,471.477291 L438.095617,471.799367 L437.032264,472.191897 L434.785178,472.805855 L433.601446,472.987023 L432.538093,473.278905 L426.769905,474.285393 L425.636331,474.396107 L424.572978,474.58734 L421.011749,474.899351 L419.757795,474.899351 L418.694442,475 L413.939449,475 Z M412.735653,473.892863 L413.979575,473.993512 L418.654315,473.993512 L419.717668,473.892863 L420.961591,473.892863 L424.432535,473.590916 L425.485856,473.399683 L426.629462,473.28897 L432.307366,472.282481 L433.370718,471.9906 L434.514324,471.779237 L436.681157,471.185409 L437.74451,470.792879 L438.888116,470.480867 L444.164754,468.46789 L446.221238,467.461402 L447.374876,467.038677 L448.287754,466.475044 L450.444555,465.468555 L454.407049,463.083178 L456.413376,461.694224 L457.416539,461.070201 L458.369544,460.30527 L459.372707,459.580598 L462.261817,457.285805 L463.1446,456.500744 L464.147763,455.675423 L465.030547,454.890362 L465.91333,454.004653 L466.916493,453.078683 L468.712155,451.287134 L469.594939,450.280646 L471.220063,448.650135 L471.470854,448.297864 L472.825124,446.939104 L473.176231,446.486185 L473.517307,446.224498 L473.778129,445.882292 L474.129236,445.530021 L474.380027,445.17775 L474.731134,444.825479 L475.122368,444.513467 L475.38319,444.171261 L475.734297,443.81899 L476.085404,443.366071 L476.42648,443.104384 L476.73746,442.792372 L477.088568,442.440101 L477.339358,442.08783 L477.740624,441.785884 L478.131857,441.473872 L478.39268,441.131666 L478.743787,440.779395 L479.094894,440.326476 L479.435969,440.064789 L479.696792,439.722583 L480.047899,439.370312 L480.29869,439.018041 L481.65296,437.659282 L481.903751,437.307011 L482.254858,436.95474 L482.605965,436.50182 L482.94704,436.240133 L483.207863,435.897927 L483.55897,435.545656 L483.809761,435.193385 L484.160868,434.841114 L484.511975,434.388194 L484.85305,434.126507 L485.113873,433.784301 L485.46498,433.43203 L485.71577,433.079759 L486.066878,432.727489 L486.317668,432.375218 L487.37099,431.318405 L487.62178,430.966134 L487.972887,430.613863 L488.223678,430.261592 L488.574785,429.909321 L488.825576,429.55705 L489.176683,429.204779 L489.427474,428.852508 L490.430637,427.795696 L490.982377,427.040829 L491.333484,426.688558 L491.584275,426.336287 L491.935382,425.984016 L492.186173,425.631746 L492.53728,425.279475 L492.78807,424.927204 L493.721012,423.920715 L495.506643,421.716506 L496.429553,420.710017 L497.312336,419.62301 L498.104835,418.546067 L499.037777,417.539579 L500.823407,415.33537 L501.746317,414.328881 L502.518753,413.262003 L504.334478,411.017534 L505.126977,409.940592 L506.059919,408.934103 L506.942702,407.837031 L507.735201,406.760089 L508.64808,405.622757 L510.243109,403.438677 L511.155987,402.301345 L511.948486,401.224403 L512.861365,400.087071 L515.258925,396.795854 L516.171803,395.658522 L517.766832,393.474442 L518.5493,392.276721 L520.976954,388.945245 L521.759422,387.747523 L522.582015,386.630321 L524.066697,384.325463 L524.889291,383.208261 L525.56141,382.040734 L526.394035,380.893338 L530.185992,375.06577 L530.878174,373.888179 L531.59042,372.760912 L532.282603,371.573255 L533.095165,370.335275 L535.191776,366.742111 L535.904022,365.614844 L537.298418,363.219402 L538.592499,360.713246 L539.304745,359.495395 L539.886579,358.317803 L541.311071,355.872037 L542.494803,353.396075 L543.217081,352.14803 L546.908721,344.639627 L547.500587,343.240608 L548.814731,340.513024 L549.968369,337.513689 L550.459919,336.1348 L551.071848,334.695521 L553.569724,327.87153 L553.960958,326.502706 L554.472571,325.063428 L555.26507,322.376104 L555.555987,321.00728 L555.967284,319.557936 L556.258202,318.279696 L556.669498,316.840418 L556.960416,315.471594 L557.161048,314.183288 L557.461997,312.754075 L558.46516,305.940149 L558.966742,299.226871 L558.966742,293.832094 L558.565477,288.537965 L558.374876,287.159076 L558.294623,285.780187 L557.903389,283.092863 L557.60244,281.824687 L557.401808,280.486058 L556.79991,277.788669 L556.408676,276.530559 L556.097695,275.181864 L554.903931,271.296819 L552.897605,266.093274 L550.510077,260.889729 L547.711252,255.786833 L546.116222,253.190093 L544.511161,250.814781 L544.240307,250.814781 L544.240307,250.412185 L544.049706,250.412185 L543.989516,250.110239 L543.748757,250.110239 L543.748757,249.707644 L543.558156,249.707644 L543.487935,249.335243 L543.156891,249.003102 L543.056575,249.003102 L542.986353,248.630701 L542.65531,248.308625 L542.65531,248.207976 L542.354361,247.895965 L542.254044,247.895965 L542.183823,247.533629 L541.852779,247.201488 L541.852779,247.100839 L541.652146,246.899541 L541.652146,246.798892 L541.351197,246.496946 L541.351197,246.396297 L541.24085,246.285583 L541.050249,246.285583 L540.980027,245.913182 L540.839584,245.782339 L540.548667,245.782339 L540.548667,245.389809 L540.448351,245.28916 L540.448351,245.158316 L537.157976,241.132363 L536.716584,240.48821 L535.713421,239.320684 L535.241934,238.847634 L533.235608,236.401867 L532.764121,235.928818 L531.760958,234.690837 L531.289471,234.217788 L530.757795,233.5837 L529.68441,232.506757 L528.681247,231.268777 L528.139539,230.825922 L527.577768,230.161639 L527.106281,229.68859 L526.574605,229.054502 L526.032897,228.611647 L525.471125,227.947365 L524.929417,227.50451 L524.367646,226.840228 L522.73249,225.390885 L522.160687,224.917835 L521.598915,224.253553 L521.057207,223.810698 L519.923633,222.673366 L519.35183,222.200317 L518.820154,221.666878 L518.248351,221.193828 L517.686579,220.529546 L516.542973,219.583447 L516.011297,219.050008 L514.235698,217.57047 L513.102124,216.433138 L511.928423,215.42665 L511.366652,215.064314 L510.794849,214.490616 L507.785359,212.004589 L507.223588,211.642254 L505.377768,210.092261 L504.815996,209.729926 L503.572074,208.723437 L503.010303,208.361101 L500.371984,206.217281 L491.965477,200.178351 L485.555264,195.860516 L476.948125,190.435544 L474.791324,189.157303 L472.564302,187.838804 L463.75653,183.017724 L457.0554,179.706378 L448.026932,175.58984 L436.610935,171.110967 L429.588793,168.695395 L420.179123,165.887292 L410.669137,163.47172 L403.506552,161.982117 L401.119024,161.579522 L398.691369,161.076278 L396.203525,160.673683 L393.815996,160.381801 L391.288025,159.969141 L383.884681,159.073366 L376.481338,158.469473 L373.993493,158.368824 L371.465522,158.167527 L368.877361,158.066878 L366.389516,158.066878 L363.861545,157.966229 L358.765477,157.966229 L356.177316,158.066878 L353.649345,158.066878 L348.45296,158.268175 L338.110348,159.063301 L338.010032,159.174015 L337.408134,159.174015 L337.307817,159.274664 L336.70592,159.274664 L336.605603,159.375313 L336.003705,159.375313 L335.903389,159.475961 L335.692725,159.475961 L335.692725,159.57661 L334.900226,159.57661 L334.79991,159.677259 L334.689562,159.677259 L334.288296,159.757778 L334.288296,159.878557 L333.887031,159.878557 L333.887031,159.979206 L333.38545,159.979206 L330.37596,160.381801 L328.90131,160.673683 L327.366471,160.885045 L322.982648,161.78082 L321.507998,162.17335 L320.073475,162.485362 L313.051333,164.498338 L310.372887,165.504827 L309.048712,165.917487 L307.774695,166.410666 L306.39033,167.004494 L305.066155,167.517803 L298.776322,170.537269 L297.612653,171.221681 L296.378762,171.845703 L292.797469,173.939199 L289.316493,176.244058 L286.016087,178.6395 L284.942702,179.535275 L283.809128,180.35053 L282.735743,181.246305 L281.73258,182.132015 L280.619069,183.057984 L279.615906,184.064472 L278.612743,184.990442 L274.60009,189.016395 L273.73737,190.093338 L272.734207,191.099826 L269.162946,195.49818 L267.367284,197.893622 L266.584817,199.081279 L265.671939,200.228675 L264.066878,202.624118 L260.866787,207.837727 L257.967646,213.252635 L254.265974,221.07305 L253.583823,222.854534 L252.761229,224.595759 L250.022594,231.711632 L249.420696,233.412597 L248.718482,235.234341 L248.116584,237.02589 L247.41437,238.857699 L245.608676,244.171958 L245.117126,245.953442 L244.505197,247.795316 L244.003615,249.546605 L243.391685,251.388479 L240.893809,260.517329 L240.502576,262.308878 L239.990962,264.140687 L239.599729,265.932236 L239.088116,267.764045 L236.690556,278.835417 L236.389607,280.616901 L235.988342,282.549359 L235.687393,284.340908 L235.286127,286.273366 L233.179485,299.236936 L232.988884,301.119069 L232.376954,304.873271 L231.985721,308.567083 L231.67474,310.509606 L231.283507,314.203418 L230.972526,316.145941 L229.778762,327.388416 L229.678446,329.280614 L229.076548,334.937079 L228.976231,336.829277 L228.775599,338.761734 L228.675282,340.553284 L228.274017,344.398069 L228.073385,347.417534 L228.073385,348.574996 L227.973068,349.732458 L227.973068,354.221396 L228.073385,355.17756 L228.073385,356.335021 L228.374333,359.50546 L228.564934,360.572337 L228.675282,361.578826 L228.865883,362.645703 L228.976231,363.652192 L229.367465,365.614844 L229.658382,366.621332 L230.069679,368.634309 L231.554361,373.405064 L231.945594,374.411552 L232.256575,375.347587 L234.262901,379.937174 L234.744419,380.802754 L235.165748,381.748853 L235.627203,382.483589 L238.135111,386.821554 L239.23859,388.532584 L239.820425,389.297515 L240.442386,390.223485 L241.626118,391.813736 L242.308269,392.588732 L242.93023,393.424118 L245.618708,396.514037 L246.290827,397.198449 L247.023136,398.02377 L249.2,400.217914 L249.982467,400.892261 L250.73484,401.747777 L253.894803,404.51562 L254.777587,405.210097 L255.600181,405.924703 L256.482964,406.61918 L257.305558,407.333787 L258.158247,407.89742 L261.55897,410.584744 L266.755355,414.198038 L267.979214,415.113942 L273.175599,418.727235 L275.864076,420.418136 L277.188251,421.344105 L278.4723,422.129166 L279.796475,423.055135 L281.080524,423.840196 L282.4047,424.766166 L283.779033,425.551226 L286.397289,427.161608 L287.791685,427.966799 L290.409941,429.57718 L291.804338,430.382371 L293.118482,431.187561 L294.512878,431.992752 L295.827022,432.797943 L297.191324,433.482355 L298.535563,434.307675 L299.899864,434.992087 L304.042928,437.32714 L308.125802,439.420636 L309.560325,440.245957 L312.258834,441.644975 L313.623136,442.228739 L319.260913,445.056971 L320.645278,445.650799 L322.06977,446.365406 L323.454135,446.959234 L324.878626,447.673841 L327.757704,448.871562 L329.192228,449.586169 L340.608224,454.407248 L341.982558,454.900427 L344.921826,456.118278 L346.386444,456.611458 L347.830999,457.225415 L350.710077,458.231904 L352.234885,458.845862 L356.81934,460.446178 L357.260732,460.526697 L359.497786,461.341953 L360.159873,461.462731 L362.336737,462.257857 L362.778129,462.338376 L364.543696,462.962399 L364.985088,463.042918 L366.750655,463.666941 L367.192047,463.74746 L368.957614,464.371483 L369.589607,464.482197 L370.662991,464.874727 L371.104383,464.955246 L372.237958,465.367906 L372.789697,465.45849 L373.953366,465.87115 L374.605423,465.991929 L375.678807,466.38446 L376.3108,466.495173 L376.762223,466.676341 L377.414279,466.79712 L378.487664,467.18965 L379.119657,467.300364 L379.57108,467.481532 L380.112788,467.572116 L380.794939,467.793543 L381.236331,467.874062 L382.500316,468.296787 L382.941708,468.377307 L383.603796,468.588669 L384.235789,468.709448 L384.687212,468.890616 L385.22892,468.9812 L385.911071,469.202627 L386.352463,469.283146 L387.01455,469.504574 L388.017714,469.685741 L388.679801,469.907169 L389.311794,470.017883 L389.763217,470.19905 L390.304925,470.289634 L390.987076,470.511062 L391.990239,470.69223 L392.67239,470.913657 L393.304383,471.024371 L393.755807,471.205539 L394.297515,471.296123 L396.845549,471.910081 L398.009218,472.101313 L399.343425,472.40326 L404.22883,473.208451 L405.392499,473.299035 L406.636421,473.510397 L411.511794,473.902928 L412.735653,473.892863 Z M544.852237,250.331666 L544.852237,250.452445 L545.092996,250.281342 L544.852237,250.331666 Z" id="Shape"></path>
                <path d="M385.77685,590 C366.800587,590 345.474882,585.290426 320.886062,574.492622 C251.376713,543.970962 169.427369,479.35521 153.774461,409.607231 C152.449135,404.625951 151.324616,399.393091 150.461146,394.079726 C135.089368,300.149898 193.524211,173.796466 275.493636,123.701899 C328.215518,91.499687 400.998022,85.8139838 459.553349,81.2654213 C484.363056,79.3433517 504.303193,79.6049947 522.305542,82.090603 C545.197542,85.2504451 564.475016,91.9827201 581.252443,102.679893 C608.481874,120.038898 632.136941,149.21209 649.637273,187.029563 C664.954366,220.449237 674.371249,256.278707 677.469125,292.924526 C679.838648,322.822268 674.316455,346.551273 660.089278,367.613533 C647.177387,386.733597 628.191083,402.160469 603.662506,419.469158 L603.080165,418.643977 C647.809929,387.095872 681.61579,357.801921 676.46509,293.005032 C669.045271,199.528047 623.030343,130.464364 580.710264,103.495011 C542.707535,79.2729094 496.039984,79.4238573 459.59351,82.2415509 C401.188789,86.7800502 328.496648,92.4255006 275.975573,124.506955 C194.307358,174.440511 136.103444,300.320972 151.404939,393.888526 C152.268409,399.171701 153.413009,404.364308 154.708214,409.335525 C161.977428,441.688685 184.33729,475.591577 219.388155,507.401325 C249.732669,534.599631 284.109182,556.907438 321.287676,573.526556 C419.683115,616.7379 465.537398,561.65199 518.620733,497.871483 C527.175112,487.596964 536.020662,476.960171 545.267825,466.534705 C560.328351,449.537974 577.627876,434.513629 601.373306,417.798669 L602.015888,418.563471 L601.714678,418.865367 L601.714678,418.865367 C578.180095,435.449506 561.001055,450.383282 546.050972,467.239128 C536.82389,477.664594 527.978341,488.281261 519.434002,498.55578 C479.292679,546.748403 443.28798,589.989937 385.77685,590 Z" id="Path"></path>
                <polygon id="Path" points="676.573689 597.969215 671.430933 602.875629 667.011378 606.907334 664.902044 608.908106 658.282756 614.930528 656.062933 616.850866 653.8632 618.851637 647.143467 624.672977 644.813156 626.603369 642.623467 628.594087 631.182844 638.044966 628.862578 639.854709 626.5624 641.764993 624.262222 643.564682 621.831467 645.384479 619.541333 647.284709 617.120622 649.104506 614.820444 650.904195 605.288267 658.032571 602.867556 659.751827 600.466933 661.551516 598.066311 663.260717 595.545156 664.969919 590.733867 668.388322 588.212711 670.097524 585.812089 671.806725 583.311022 673.505873 580.789867 675.124587 577.2944 677.51747 576.259822 678.140825 575.275467 678.83456 574.150489 679.548403 573.176178 680.232084 572.1416 680.85544 571.187378 681.529066 570.032267 682.162476 568.0736 683.539892 566.918489 684.173302 565.944178 684.856982 563.804711 686.083586 562.8304 686.767267 560.721067 688.074303 558.611733 689.280798 556.5024 690.587835 542.741511 698.430054 541.787289 699.013194 540.652267 699.525954 537.468178 701.315589 536.313067 701.848457 535.358844 702.421543 534.223822 702.944357 532.034133 704.140798 529.904711 705.156265 528.829956 705.749459 527.694933 706.262219 526.620178 706.845359 524.360178 707.880934 523.405956 708.454019 516.746489 711.490365 515.671733 712.083559 514.607022 712.566157 513.461956 712.978376 506.772356 715.98456 505.627289 716.396779 504.482222 716.929648 501.699911 718.5182 500.956622 718.890203 499.1888 719.523613 498.445511 719.895616 496.677689 720.529026 495.924356 720.911083 493.363022 721.836062 492.619733 722.218119 486.633244 724.349594 485.889956 724.731651 483.318578 725.626468 482.474844 725.837605 476.488356 727.928863 475.644622 728.150054 473.987289 728.733194 473.012978 728.954384 471.365689 729.537524 470.521956 729.758714 468.754133 730.341854 467.9104 730.563045 467.056622 730.84456 466.082311 731.065751 465.349067 731.347267 464.394844 731.568457 463.531022 731.849973 461.783289 732.272246 460.919467 732.553762 459.171733 732.965981 458.317956 733.257551 454.752178 734.081989 453.8984 734.363505 446.023556 736.163194 445.059289 736.273789 436.4512 738.083532 434.422222 738.385156 432.433422 738.787321 424.528444 739.983762 420.580978 740.395981 418.702667 740.687551 414.704978 741.089716 412.776444 741.190257 410.787644 741.39134 400.974222 741.894046 399.035644 741.894046 397.056889 741.994587 389.342756 741.994587 387.313778 741.894046 385.435467 741.894046 377.620889 741.491881 375.692356 741.290798 373.804 741.190257 365.999467 740.395981 364.060889 740.084303 362.182578 739.893275 360.244 739.581597 358.265244 739.390568 354.468444 738.787321 352.539911 738.385156 350.551111 738.083532 348.622578 737.681367 346.734222 737.379743 341.028978 736.183302 339 735.670541 337.121689 735.27843 335.183111 734.76567 333.3048 734.373559 327.599556 732.86544 325.671022 732.262192 323.782667 731.759486 321.854133 731.156238 319.965778 730.653532 314.160089 728.853843 312.231556 728.14 310.353244 727.546806 308.515111 726.832963 306.6368 726.23977 304.517422 725.43544 302.518578 724.731651 298.380267 723.122991 296.391467 722.429256 292.403822 720.820595 290.3648 719.915724 286.377156 718.307064 274.5448 712.998484 272.606222 711.972963 268.719022 710.183329 266.790489 709.167862 264.902133 708.273045 253.471556 702.250622 244.140267 696.921935 242.322222 695.815981 240.423822 694.710027 236.797778 692.498119 234.919467 691.402219 233.091378 690.18567 229.495467 687.983816 218.768 680.865494 217.040356 679.538349 213.4344 677.135413 208.221333 673.42544 206.503733 672.118403 204.705778 670.811367 192.772978 661.672165 191.045333 660.254533 189.357867 658.957551 187.630222 657.539919 185.9528 656.252991 184.335644 654.835359 182.608 653.417727 180.930578 652.130798 175.707467 647.717037 173.788978 645.997781 171.890578 644.399175 166.255644 639.362057 164.367289 637.773505 162.549244 636.054249 160.650844 634.355101 158.8328 632.635846 156.9344 630.936698 146.096444 620.691543 140.762844 615.352801 138.974933 613.663708 135.549778 610.034168 132.044267 606.525277 128.6392 602.915846 126.9216 600.995507 123.516533 597.386076 115.290133 588.146333 113.672978 586.225995 111.975467 584.325765 107.164178 578.604966 105.647467 576.684628 102.443289 572.874114 97.8328889 567.052774 96.3061333 565.02184 94.7191111 563.131664 90.2091556 557.109242 88.7928889 555.088363 85.7896 551.076766 84.3733333 549.055886 82.8767111 547.055115 81.4805333 545.054344 80.0642667 542.932923 77.1714667 538.840893 75.8456 536.699364 74.4494222 534.698593 71.6470222 530.495968 70.3312 528.364493 68.9350222 526.283288 67.6192 524.041218 66.2129778 521.949959 63.6114667 517.626685 62.3056889 515.525372 59.8046222 511.212152 58.5892444 508.980135 57.2935111 506.888877 54.8728 502.455007 53.6875556 500.373802 52.5726222 498.141786 50.172 493.738078 43.5527111 480.486739 42.5382222 478.154181 41.4433778 475.952327 36.4312 464.721867 35.5171556 462.38931 34.5127111 460.086915 29.0987556 446.342923 27.4916444 441.697916 26.5876444 439.405575 24.9905778 434.790731 24.2774222 432.468227 23.4839111 430.065291 22.7707556 427.742788 21.9772444 425.349905 18.4717333 413.606685 17.8590222 411.173586 17.1659556 408.780704 14.7552889 399.249391 14.2530667 396.816292 13.6504 394.42341 13.1481778 391.990311 12.5455111 389.496888 11.0388444 382.278024 10.6370667 379.744384 10.1348444 377.351502 9.33128889 372.404871 8.82906667 369.911448 8.43733333 367.518566 8.12595556 364.984926 7.33244444 360.078512 6.71973333 355.011231 6.52888889 354.056089 6.31795556 351.904506 6.12711111 350.838769 5.71528889 346.565765 5.52444444 345.610622 3.616 326.155886 3.616 325.200744 3.21422222 321.329905 3.21422222 320.364709 2.91288889 317.609878 2.91288889 316.644682 2.712 314.895264 2.712 313.940122 2.51111111 312.281191 2.51111111 311.315995 2.31022222 309.667118 2.31022222 308.802463 2.10933333 307.153586 2.10933333 306.278877 2.00888889 305.645467 2.00888889 304.780812 1.808 303.232476 1.79795556 302.458309 1.70755556 301.824899 1.70755556 300.950189 1.60711111 300.316779 1.59706667 299.542612 1.50666667 298.909202 1.50666667 298.235575 1.40622222 297.602165 1.40622222 296.928539 1.30577778 296.295129 1.29573333 295.611448 1.10488889 294.485386 1.09484444 293.781597 1.00444444 293.379432 1.00444444 289.578972 1.20533333 283.224763 1.20533333 280.128092 1.50666667 270.787808 1.70755556 267.660974 1.808 264.65479 2.00888889 261.527957 2.10933333 258.521773 3.51555556 237.629296 4.41955556 228.872152 4.6104 226.087158 5.02222222 223.151353 5.61484444 217.440609 6.02666667 214.605345 6.31795556 211.810298 8.32684444 197.95571 8.82906667 195.120447 9.23084444 192.42594 11.2397333 181.587591 11.8424 178.852869 12.3446222 176.158363 12.9472889 173.524181 13.4495111 170.829675 14.6448 165.621637 15.3579556 162.886915 15.9505778 160.29295 16.6637333 157.658769 17.2563556 155.064804 18.6625778 149.856766 19.4661333 147.323126 20.1692444 144.729161 20.9728 142.105034 21.6759111 139.601556 24.0765333 131.970474 24.9905778 129.346346 25.7840889 126.852923 29.3900444 116.818904 31.4089778 111.771732 32.3029333 109.278309 33.3073778 106.784885 34.4122667 104.351786 35.4167111 101.848309 36.5416889 99.2945602 36.7224889 98.6410419 36.8832 98.409797 37.0238222 97.937253 37.1845333 97.7060081 37.3251556 97.22341 37.4858667 97.0022192 37.6264889 96.5196211 37.7872 96.2984303 37.9278222 95.8258863 38.0885333 95.5946414 38.2291556 95.1220974 38.3898667 94.8908525 38.5304889 94.4183085 40.4489778 90.2458457 40.5293333 90.0045467 40.7000889 89.7632476 40.8407111 89.2907037 41.2023111 88.7578349 41.3429333 88.2852909 45.0694222 80.8955074 45.1497778 80.6542084 45.5515556 80.0509608 45.7725333 79.5884709 45.8528889 79.3471719 46.4254222 78.5026252 46.5660444 78.0300812 47.1285333 77.1955886 47.2691556 76.7230447 48.3539556 75.0339513 49.5492444 72.7416103 54.6618667 64.0045737 58.6796444 57.5900406 62.7878222 51.3665359 67.0968889 45.2435724 68.6136 43.2226928 70.0097778 41.2219215 73.0130667 37.2103248 77.6234667 31.3889851 80.8276444 27.5784709 82.4448 25.7586739 84.0418667 23.8584438 88.9536 18.338728 92.3586667 14.7292963 94.0762667 13.0100406 95.7737778 11.2103518 99.2792889 7.70146143 101.097333 5.98220568 102.7848 4.29311231 104.602844 2.67439783 106.380711 1.00541272 106.511289 1.00541272 106.511289 0 105.988978 0 103.929867 1.94044655 102.101778 3.56921516 100.404267 5.26836265 98.5862222 6.9876184 95.0606222 10.5166171 93.3631111 12.3163058 91.6455111 14.0355616 88.2203556 17.6651015 83.2885333 23.2049256 81.6914667 25.1051556 80.0743111 26.9249526 76.8500444 30.7555751 72.2195556 36.597023 69.1961778 40.628728 67.8 42.6294993 66.2832889 44.6503789 61.9541333 50.8035047 57.8359111 57.0471177 53.8080889 63.4918133 48.6753778 72.2590122 47.4901333 74.5312449 46.3852444 76.2303924 46.2446222 76.7029364 45.6821333 77.537429 45.5415111 78.0099729 40.7101333 87.3100406 40.6297778 87.5513396 40.4590222 87.7926387 40.3184 88.2651827 39.9568 88.7980514 39.8161778 89.2705954 37.8976889 93.4430582 37.8173333 93.6843572 37.6465778 93.9256563 37.5059556 94.3982003 37.3452444 94.6294452 37.2046222 95.1019892 37.0439111 95.3332341 36.9032889 95.8158322 36.7425778 96.037023 36.6019556 96.5196211 36.4412444 96.7408119 36.3006222 97.2133559 36.1399111 97.4446008 35.9992889 97.9171448 35.8385778 98.1483897 35.6879111 98.6712043 34.4926222 101.466252 33.4881778 103.949621 32.3832889 106.38272 31.3688 108.91636 30.4748444 111.409783 28.4559111 116.456955 24.8298667 126.531191 24.0363556 129.034668 23.1223111 131.658796 20.7116444 139.309986 20.0085333 141.813464 19.2049778 144.447645 18.5018667 147.04161 17.6983111 149.57525 16.2820444 154.823505 15.6894222 157.41747 14.9762667 160.051651 14.3836444 162.645616 13.6704889 165.380338 12.4651556 170.628593 11.9629333 173.323099 11.3602667 175.95728 10.8580444 178.651786 10.2553778 181.386509 8.24648889 192.265074 7.84471111 194.959581 7.33244444 197.794844 5.32355556 211.689648 5.02222222 214.484696 4.62044444 217.319959 4.01777778 223.030704 3.616 225.976563 3.41511111 228.781664 2.51111111 237.548863 1.10488889 258.471502 1.00444444 261.477686 0.803555556 264.60452 0.703111111 267.610704 0.502222222 270.737537 0.200888889 280.107984 0.200888889 283.214709 0 289.558863 0.0100444444 293.479973 0.100444444 293.882138 0.110488889 294.565819 0.301333333 295.691881 0.301333333 296.365507 0.401777778 296.998917 0.411822222 297.672544 0.502222222 298.305954 0.512266667 298.979581 0.602666667 299.612991 0.602666667 300.387158 0.703111111 301.020568 0.703111111 301.895277 0.803555556 302.528687 0.803555556 303.292801 1.00444444 304.841137 1.00444444 305.715846 1.10488889 306.349256 1.10488889 307.213911 1.30577778 308.862788 1.30577778 309.727442 1.50666667 311.376319 1.50666667 312.341516 1.70755556 313.990392 1.70755556 314.945535 1.90844444 316.705007 1.90844444 317.660149 2.20977778 320.425034 2.20977778 321.380176 2.61155556 325.251015 2.61155556 326.206157 4.53004444 345.761434 4.72088889 346.716576 5.13271111 350.979526 5.32355556 352.045264 5.53448889 354.206901 5.72533333 355.172097 6.33804444 360.219269 7.13155556 365.125683 7.44293333 367.659323 7.84471111 370.092422 8.34693333 372.585846 9.15048889 377.532476 9.65271111 379.925359 10.0544889 382.458999 11.5611556 389.718078 12.1638222 392.211502 12.6760889 394.644601 13.2687111 397.037483 13.7709333 399.470582 16.1916444 409.042111 16.8947556 411.434993 17.4974222 413.878146 21.0230222 425.651529 21.8165333 428.054465 22.5296889 430.376969 23.3232 432.769851 24.0363556 435.102409 25.6434667 439.747415 26.5474667 442.039756 28.1545778 446.684763 33.5886222 460.479026 34.5830222 462.771367 35.4970667 465.113978 40.5293333 476.384655 41.6241778 478.576455 42.6386667 480.909012 49.2780444 494.200568 51.6786667 498.604276 52.8036444 500.846346 56.4196444 507.391583 57.7153778 509.482842 58.9307556 511.704804 61.4418667 516.038133 62.7476444 518.139445 64.0534222 520.361407 65.3692444 522.492882 66.7654222 524.574087 68.0812444 526.816157 69.4774222 528.907415 70.7932444 531.03889 73.6157333 535.271678 75.0018667 537.252341 76.3277333 539.39387 79.2305778 543.506008 80.6468444 545.627429 82.0631111 547.648309 83.5597333 549.64908 84.976 551.669959 87.9792889 555.681556 89.3955556 557.702436 93.9356444 563.75502 95.5226667 565.645196 97.0393778 567.666076 101.669867 573.507524 104.874044 577.318038 106.390756 579.238376 111.222133 584.979283 112.919644 586.879513 114.5368 588.799851 122.783289 598.059702 126.188356 601.669134 127.905956 603.589472 131.331111 607.219012 134.836622 610.727903 138.271822 614.367497 140.069778 616.066644 145.403378 621.405386 156.261422 631.67065 158.159822 633.369797 159.977867 635.089053 161.876267 636.7882 163.704356 638.51751 165.602756 640.116116 171.237689 645.153234 173.136089 646.75184 175.054578 648.471096 178.660533 651.487334 180.297778 652.91502 181.985244 654.212003 183.682756 655.609526 185.32 657.037212 187.007467 658.334195 188.735111 659.751827 190.422578 661.048809 192.150222 662.466441 204.113156 671.615697 205.911111 672.922733 207.628711 674.239824 212.861867 677.969905 216.457778 680.362788 218.185422 681.689932 228.953067 688.838417 232.548978 691.040271 234.387111 692.25682 236.285511 693.362774 239.911556 695.574682 252.989422 703.125332 264.460178 709.167862 266.348533 710.062679 268.277067 711.078146 272.174311 712.877835 274.102844 713.903356 285.975378 719.232043 289.973067 720.840704 292.002044 721.745575 296.049956 723.36429 298.028711 724.058024 302.167022 725.676739 304.165867 726.380528 306.305333 727.194912 308.183644 727.788106 310.021778 728.501949 311.910133 729.095142 313.848711 729.808985 319.684533 731.618728 321.572889 732.121434 323.501422 732.724682 325.389778 733.227388 327.318311 733.830636 333.073778 735.348809 334.952089 735.74092 336.890667 736.253681 338.779022 736.655846 340.808 737.158552 346.553422 738.365047 348.441778 738.666671 350.380356 739.068836 352.359111 739.37046 354.287644 739.772625 358.134667 740.385927 360.113422 740.576955 362.052 740.888633 363.930311 741.079662 365.868889 741.39134 373.723644 742.19567 375.612 742.296211 377.550578 742.497294 385.405333 742.899459 387.283644 742.899459 389.322667 743 397.076978 743 399.065778 742.899459 401.004356 742.899459 410.868 742.396752 412.8568 742.19567 414.785333 742.095129 418.833244 741.682909 420.711556 741.39134 424.648978 740.97912 432.614222 739.772625 434.592978 739.37046 436.632 739.068836 442.568267 737.862341 445.22 737.269147 446.184267 737.158552 454.1696 735.338755 455.023378 735.047185 458.589156 734.222747 459.442933 733.941231 461.200711 733.518958 462.054489 733.237442 463.812267 732.825223 464.666044 732.533654 465.640356 732.312463 466.3736 732.030947 467.327822 731.819811 468.191644 731.528241 469.035378 731.317104 470.8032 730.713857 471.646933 730.50272 473.304267 729.919581 474.278578 729.69839 475.925867 729.11525 476.7696 728.904114 482.756089 726.802801 483.599822 726.58161 486.271644 725.656631 487.035022 725.274574 493.001422 723.143099 493.7648 722.761042 496.316089 721.836062 497.079467 721.454005 498.8272 720.83065 499.590578 720.448593 501.338311 719.825237 502.172 719.402963 504.944267 717.824465 506.008978 717.331813 507.154044 716.90954 513.843644 713.91341 514.988711 713.491137 516.123733 712.978376 517.198489 712.385183 523.878044 709.348836 524.832267 708.775751 527.072178 707.75023 528.146933 707.167091 529.281956 706.644276 530.356711 706.051083 531.471644 705.548376 534.675822 703.839175 535.830933 703.31636 536.785156 702.743275 537.920178 702.22046 541.104267 700.420771 542.259378 699.897957 556.020267 692.055737 558.1296 690.748701 560.238933 689.542206 563.382844 687.611813 564.337067 686.938187 565.462044 686.324885 566.496622 685.701529 567.450844 685.027903 568.605956 684.394493 570.564622 683.017077 571.719733 682.383667 572.694044 681.699986 573.728622 681.076631 574.712978 680.382896 575.837956 679.669053 576.812267 678.985372 577.846844 678.362016 581.342311 675.95908 583.863467 674.340365 586.384622 672.631164 588.785244 670.921962 591.3064 669.21276 596.117689 665.794357 598.638844 664.085156 601.059556 662.3659 603.460178 660.566211 605.880889 658.846955 615.433156 651.698471 617.733333 649.898782 620.164089 648.078985 622.454222 646.178755 624.874933 644.358958 627.1952 642.549215 629.495378 640.638931 631.815644 638.829188 643.2864 629.3582 645.476089 627.367483 647.796356 625.447145 654.536178 619.605697 656.735911 617.604926 658.955733 615.684587 665.585067 609.642057 667.6944 607.641286 672.113956 603.609581 678 597.999378 678 597.969215"></polygon>
            </g>
        </g>
    </g>
</svg>